<svg width="148" height="199" viewBox="0 0 148 199" fill="none" xmlns="http://www.w3.org/2000/svg">
<path d="M0 124.941C0 116.607 0 108.275 0 99.9413C0.7827 91.1884 1.1142 82.4056 0.953598 73.6322C0.715301 60.6381 5.9834 53.5873 18.4043 51.6517C19.5532 51.473 20.6665 50.9677 21.8232 50.9305C29.2012 50.6932 29.3008 50.9574 30.4766 42.3895C31.8149 32.6307 34.876 23.3207 40.1304 15.2645C45.6763 6.76159 53.6904 0.500892 64.7051 0.512591C75.1894 0.523291 85.875 -1.00161 96.1191 1.15859C112.414 4.59359 125.884 12.6371 132.502 29.097C133.203 30.8412 134.064 32.4257 135.564 33.5687C142.664 38.9794 146.689 46.1678 148 54.9413C148 58.9413 148 62.9413 148 66.9413C147.142 71.5223 145.553 75.6898 142.725 79.558C140.227 82.9755 140.907 87.4061 141.783 91.1722C145.272 106.18 142.594 120.879 140.285 135.638C138.928 144.312 137.311 152.945 136.256 161.668C135.572 167.322 134.246 172.779 130.943 177.57C128.033 182.508 123.589 184.472 118.002 184.371C114.52 184.306 111.036 184.369 107.553 184.367C97.4726 184.359 94.9141 182.648 91.0488 173.373C89.3105 169.221 88.54 164.885 88.5605 160.378C88.5703 158.303 88.1631 156.076 85.5098 156.205C82.8262 156.335 83.5019 158.805 83.4355 160.449C83.2519 165.042 83.7246 169.676 82.4131 174.189C80.5586 184.416 72.4077 191.914 61.8418 193.18C53.1333 194.224 44.9267 192.254 37.2168 188.501C33.1177 186.506 31.1997 182.484 30.6714 177.93C30.5669 171.797 29.4521 165.74 29.2891 159.605C29.1958 156.096 27.5034 153.886 23.6577 154.376C11.436 155.933 2.4717 146.35 0.995098 133.714C0.6538 130.791 0.982898 127.787 0 124.941Z" fill="#010000"/>
<path fill-rule="evenodd" clip-rule="evenodd" d="M92.166 172.896C94.8603 180.226 99.5488 184.24 107.895 183.039C111.303 182.55 114.841 182.859 118.314 182.964C123.338 183.113 127.332 181.457 129.842 176.898C136.563 178.068 143.757 178.174 148 184.941C148 185.941 148 186.941 148 187.941C146.732 191.191 143.971 192.529 140.93 193.615C130.856 197.211 120.345 197.907 109.799 198.447C107.865 198.546 105.854 197.885 104 198.941C88.334 198.941 72.6665 198.941 57 198.941C50.4683 197.873 43.8086 198.381 37.2764 197.364C30.7075 196.342 24.123 195.31 18.0268 192.461C15.4248 191.246 12.9155 189.785 12.957 186.349C12.998 182.906 15.4819 181.33 18.2046 180.445C22.6509 179.001 26.8501 175.888 31.9551 177.864C32.7812 184.239 36.7324 187.258 42.6269 189.333C54.6142 193.551 65.522 193.29 76.0098 185.156C80.0898 181.994 80.1035 177.916 81.0625 173.838C84.6094 171.689 88.4004 172.445 92.166 172.896Z" fill="#373B3C"/>
<path fill-rule="evenodd" clip-rule="evenodd" d="M48.8247 22.8724C54.7378 15.4594 61.4975 9.92029 71.9243 11.3617C75.8535 11.9047 79.8896 11.8456 83.873 11.7885C95.1211 11.6268 104.658 15.4598 112.387 23.6625C113.244 24.5721 114.943 25.3314 114.306 26.8055C113.725 28.1503 112.004 27.9476 110.703 27.9344C101.898 27.8451 93.0762 27.1664 84.3359 28.892C80.5918 29.6312 76.7383 30.014 73.1196 31.1522C67.0659 33.057 62.9175 37.5609 62.3218 43.683C61.1929 55.2733 61.0889 66.8329 67.4585 77.5438C70.2246 82.1962 74.1968 84.7103 78.623 86.9227C89.2344 92.2269 100.268 90.8881 111.279 88.5668C115.981 87.5756 120.756 86.6307 125.234 84.9594C129.926 83.2089 130.352 85.3519 129.98 88.9867C129.627 95.9198 129.107 102.773 127.326 109.586C123.615 123.777 117.56 128.472 103.228 130.713C90.9004 132.638 79.3262 129.621 67.6494 127.508C60.9404 126.294 57.3774 119.773 54.8135 113.861C50.0283 102.826 47.7183 91.1649 46.1699 79.1571C44.8599 69.0028 45.102 58.9081 44.4253 48.8055C43.8144 39.6869 47.2944 31.4965 48.8247 22.8724Z" fill="#C01701"/>
<path fill-rule="evenodd" clip-rule="evenodd" d="M48.8247 22.8724C49.2353 27.5848 48.3061 32.1136 46.7402 36.5052C46.2202 37.9642 46.0635 39.39 45.9917 40.8866C45.2681 56.0253 45.9907 71.1556 48.3047 86.0702C49.8642 96.1215 51.8926 106.467 57.0425 115.364C60.5884 121.49 64.8799 127.474 74.1006 127.231C81.0664 127.047 87.9111 130.982 95.1758 129.874C100.865 129.006 106.693 129.554 112.287 127.42C118.382 125.095 122.062 120.899 124.11 114.948C126.654 107.557 128.158 99.9432 128.989 92.1869C129.111 91.0448 128.9 89.8217 129.98 88.9862C132.717 110.703 130.511 131.988 124.514 152.965C123.35 157.037 124.244 161.246 124.15 165.39C123.992 172.375 123.02 173.465 116.262 174.118C114.281 174.308 112.31 174.692 110.327 174.752C102.658 174.98 99.7432 172.304 100.049 164.532C100.262 159.103 100.289 153.384 107.538 151.472C110.561 150.676 113.079 148.149 116.274 144.83C110.15 145.633 105.256 145.955 100.338 145.952C94.4922 145.947 88.75 145.339 83.0351 144.205C80.7353 143.75 78.3769 143.586 76.0937 144.168C73.6987 144.78 72.1348 146.024 71.8032 148.912C71.1006 155.033 70.709 161.133 70.9009 167.294C71.1694 175.912 66.0434 181.271 57.2729 181.819C52.6475 182.108 48.4341 180.703 44.2837 178.873C42.6416 178.148 42.3291 176.944 42.1211 175.336C37.9355 142.935 37.7226 110.387 38.0879 77.7914C38.2471 63.642 39.9844 49.767 43.5268 36.1346C44.7148 31.5638 47.0264 27.285 48.8247 22.8724Z" fill="#770A39"/>
<path fill-rule="evenodd" clip-rule="evenodd" d="M27.8808 74.85C27.9433 91.8212 27.96 108.793 28.1059 125.763C28.1357 129.235 28.7407 132.699 28.9189 136.176C29.2568 142.75 25.6807 145.039 19.5122 142.15C14.7334 139.912 12.4927 136.646 11.6079 130.803C8.88231 112.799 11.2432 95.0175 12.1601 77.1532C12.1831 76.7123 12.6074 76.2919 12.8442 75.8617C15.3379 76.0121 17.6128 75.0951 19.9585 74.4667C22.6142 73.7548 25.3286 72.9476 27.8808 74.85Z" fill="#760B39"/>
<path fill-rule="evenodd" clip-rule="evenodd" d="M138.066 55.892C139.769 62.3094 136.792 69.1761 129.701 72.6176C117.535 78.5228 104.736 81.8182 91.0947 78.6893C84.3496 77.142 79.0039 73.0018 74.6475 67.9164C69.1938 61.5516 70.9111 46.1591 77.1748 41.1268C79.3848 42.2499 79.6973 44.4823 80.3057 46.5267C83.9414 58.7509 89.084 62.6317 101.908 62.5619C110.366 62.516 118.74 61.3632 127.123 60.3685C131.209 59.8837 134.406 57.3485 138.066 55.892Z" fill="#4A646E"/>
<path fill-rule="evenodd" clip-rule="evenodd" d="M138.066 55.892C135.61 60.4193 130.976 61.4154 126.666 61.9266C117.622 63.0004 108.54 63.9564 99.3867 63.8529C88.6875 63.7323 82.4297 59.0599 79.5098 48.7318C78.7891 46.1805 77.957 43.661 77.1748 41.1268C87.2012 39.0629 97.1406 36.08 107.512 36.8514C115.125 37.4178 122.544 39.2626 129.093 43.3925C133.684 46.287 137.172 50.2225 138.066 55.892Z" fill="#98C7DC"/>
<path fill-rule="evenodd" clip-rule="evenodd" d="M27.8808 74.85C24.0195 74.7806 20.3081 75.434 16.6816 76.826C15.3828 77.3246 13.4526 78.7733 12.8452 75.8612C13.0688 74.2284 13.228 72.5824 13.5293 70.9637C14.8677 63.7806 20.2739 60.6561 27.21 62.8719C29.0434 63.4574 28.8096 64.7001 28.7036 65.9906C28.4604 68.9462 28.1587 71.8973 27.8808 74.85Z" fill="#BD1804"/>
<path fill-rule="evenodd" clip-rule="evenodd" d="M117.694 52.9379C112.762 52.3929 106.381 51.6024 99.9805 51.0165C96.625 50.7094 95.9316 48.5302 95.9258 45.8461C95.9209 42.7264 97.9131 40.8846 100.696 40.4369C108.388 39.1996 115.777 41.2025 123.123 43.1405C124.715 43.5609 126.172 44.4901 127.207 45.8754C128.207 47.2137 129.357 48.618 128.574 50.3944C127.768 52.2177 126.268 53.1083 124.162 52.9608C122.506 52.8451 120.836 52.9379 117.694 52.9379Z" fill="#FBFDFC"/>
</svg>
